#!OML:ASF I:\golf\golf\golf 2\Subject 1\2002-09-07\Subject1.ASF
:FULLY-SPECIFIED
:DEGREES
357
root -10.2111 18.0802 5.11231 -154.165 76.023 -170.243
lowerback 3.462 1.77557 -0.144805
upperback 5.24641 2.48952 4.441
thorax 3.27151 1.24545 4.66937
lowerneck -11.6203 3.90858 5.72996
upperneck 38.2482 8.8108 -5.25557
head 16.066 4.48727 -1.62245
rclavicle 1.82882e-014 3.4191e-014
rhumerus -11.617 24.9445 -100.173
rradius 37.6133
rwrist -43.2568
rhand -30.1205 -11.2922
rfingers 7.12502
rthumb -3.4338 -41.2443
lclavicle 1.82882e-014 3.4191e-014
lhumerus -8.29697 -37.0055 106.744
lradius 33.9809
lwrist 45.3601
lhand -2.98262 57.2881
lfingers 7.12502
lthumb 22.7306 85.9692
rfemur -25.1473 -6.58796 15.1299
rtibia 23.8118
rfoot -7.32639 -14.7082
rtoes 0.00915234
lfemur -30.0902 0.0602376 -13.0689
ltibia 22.5389
lfoot -7.79209 -12.732
ltoes -6.90935
358
root -10.2114 18.0815 5.11067 -154.153 76.0022 -170.261
lowerback 3.43849 1.71364 -0.1846
upperback 5.24893 2.40646 4.50169
thorax 3.29053 1.20178 4.75769
lowerneck -11.6314 4.01346 5.60031
upperneck 38.2088 9.01563 -5.29973
head 16.0619 4.54574 -1.58238
rclavicle -1.59028e-014 -1.19271e-014
rhumerus -11.6545 25.2665 -100.144
rradius 37.5598
rwrist -43.2132
rhand -30.2701 -11.1043
rfingers 7.12502
rthumb -3.57833 -41.054
lclavicle -1.59028e-014 -1.19271e-014
lhumerus -8.20549 -36.8422 106.733
lradius 33.9703
lwrist 45.4031
lhand -3.04704 57.2882
lfingers 7.12502
lthumb 22.6688 85.9768
rfemur -25.1549 -6.61395 15.1313
rtibia 23.7705
rfoot -7.37334 -14.6675
rtoes 0.592499
lfemur -30.1387 0.0955549 -13.0892
ltibia 22.5439
lfoot -7.79034 -12.7769
ltoes -7.01867
359
root -10.2109 18.084 5.10952 -153.958 75.9637 -170.086
lowerback 3.40189 1.71261 -0.104222
upperback 5.24906 2.40549 4.51073
thorax 3.31395 1.20389 4.72322
lowerneck -11.6786 4.06974 5.60139
upperneck 38.2016 9.10636 -5.32326
head 16.0795 4.57826 -1.57527
rclavicle 1.35174e-014 -3.10104e-014
rhumerus -11.644 25.2996 -100.129
rradius 37.5352
rwrist -43.1632
rhand -30.2787 -11.0039
rfingers 7.12502
rthumb -3.58665 -40.9535
lclavicle 1.35174e-014 -3.10104e-014
lhumerus -8.20185 -36.9048 106.735
lradius 33.9759
lwrist 45.5015
lhand -3.11998 57.2899
lfingers 7.12502
lthumb 22.5988 85.987
rfemur -25.1533 -6.59571 15.1843
rtibia 23.7344
rfoot -7.39921 -14.6916
rtoes 0.916159
lfemur -30.1716 0.110358 -13.0413
ltibia 22.5539
lfoot -7.88506 -12.7974
ltoes -7.35961
360
root -10.2107 18.0845 5.10855 -153.79 75.9511 -169.917
lowerback 3.38501 1.70821 -0.0512901
upperback 5.25976 2.40029 4.52366
thorax 3.33655 1.203 4.70801
lowerneck -11.6975 4.14717 5.62443
upperneck 38.1509 9.22883 -5.38162
head 16.0744 4.62239 -1.58236
rclavicle -4.69132e-014 4.13472e-014
rhumerus -11.6217 25.3523 -100.105
rradius 37.5875
rwrist -43.2943
rhand -30.2295 -10.9804
rfingers 7.12502
rthumb -3.5391 -40.9308
lclavicle -4.69132e-014 4.13472e-014
lhumerus -8.17588 -36.8549 106.731
lradius 33.9622
lwrist 45.4486
lhand -3.00353 57.305
lfingers 7.12502
lthumb 22.7106 85.9885
rfemur -25.133 -6.50465 15.2125
rtibia 23.7025
rfoot -7.32132 -14.8019
rtoes 0.689641
lfemur -30.1749 0.0999066 -12.9851
ltibia 22.5717
lfoot -7.88143 -12.7766
ltoes -7.19798
361
root -10.2106 18.0823 5.10783 -153.649 75.9495 -169.765
lowerback 3.37461 1.65027 -0.0794122
upperback 5.28294 2.32358 4.59614
thorax 3.36945 1.16293 4.80223
lowerneck -11.6715 4.28614 5.54941
upperneck 38.047 9.47161 -5.46187
head 16.0373 4.6994 -1.56188
rclavicle -7.15625e-015 1.51076e-014
rhumerus -11.6076 25.5809 -100.046
rradius 37.6526
rwrist -43.4705
rhand -30.1775 -11.0883
rfingers 7.12502
rthumb -3.48886 -41.0395
lclavicle -7.15625e-015 1.51076e-014
lhumerus -8.07244 -36.6067 106.709
lradius 33.9454
lwrist 45.3861
lhand -2.89182 57.3029
lfingers 7.12502
lthumb 22.8178 85.9732
rfemur -25.1039 -6.3752 15.2284
rtibia 23.6673
rfoot -7.23616 -14.9781
rtoes 0.17377
lfemur -30.1728 0.120091 -12.9423
ltibia 22.5879
lfoot -7.78068 -12.8031
ltoes -6.67225
362
root -10.2101 18.0803 5.10704 -153.626 75.955 -169.73
lowerback 3.37101 1.63294 -0.116685
upperback 5.29121 2.30057 4.64178
thorax 3.37922 1.14969 4.87204
lowerneck -11.5918 4.38324 5.49863
upperneck 37.8924 9.62707 -5.51845
head 15.9529 4.74905 -1.55252
rclavicle -1.51076e-014 -2.78299e-014
rhumerus -11.6284 25.6611 -100.002
rradius 37.6473
rwrist -43.4303
rhand -30.2004 -11.1096
rfingers 7.12502
rthumb -3.51103 -41.0604
lclavicle -1.51076e-014 -2.78299e-014
lhumerus -8.03209 -36.4482 106.751
lradius 33.9088
lwrist 45.3464
lhand -2.89061 57.2993
lfingers 7.12502
lthumb 22.8189 85.9695
rfemur -25.0706 -6.32645 15.2184
rtibia 23.6406
rfoot -7.31692 -15.0162
rtoes 0.201197
lfemur -30.1665 0.171062 -12.9549
ltibia 22.6015
lfoot -7.74439 -12.8423
ltoes -6.66609
363
root -10.2089 18.0815 5.10352 -153.598 75.9002 -169.682
lowerback 3.37739 1.61662 -0.0563195
upperback 5.29337 2.28043 4.66001
thorax 3.3811 1.14197 4.85708
lowerneck -11.5429 4.42997 5.4531
upperneck 37.7864 9.70266 -5.54735
head 15.8926 4.77044 -1.54526
rclavicle 2.22639e-014 -3.97569e-014
rhumerus -11.6478 25.7132 -99.996
rradius 37.6215
rwrist -43.4254
rhand -30.3062 -11.042
rfingers 7.12502
rthumb -3.61316 -40.9911
lclavicle 2.22639e-014 -3.97569e-014
lhumerus -8.02809 -36.4024 106.793
lradius 33.8762
lwrist 45.3257
lhand -3.01661 57.305
lfingers 7.12502
lthumb 22.698 85.9901
rfemur -25.0277 -6.44557 15.2415
rtibia 23.6291
rfoot -7.4309 -14.8736
rtoes 0.740242
lfemur -30.1552 0.13077 -12.9361
ltibia 22.6205
lfoot -7.76407 -12.8333
ltoes -6.74738
